<svg width="25" height="23" viewBox="0 0 25 23" fill="none" xmlns="http://www.w3.org/2000/svg">
<path d="M24.8871 4.42246L19.1976 0.0178375L17.602 1.76371L23.2916 6.16833L24.8871 4.42246ZM7.42271 1.76371L5.83954 0.0178375L0.149994 4.41105L1.74554 6.15692L7.42271 1.76371ZM13.137 7.02415H11.2817V13.8707L17.1568 17.1228L18.0844 15.7193L13.137 13.0149V7.02415ZM12.5186 2.45978C6.37139 2.45978 1.38685 7.05839 1.38685 12.7296C1.38685 18.4009 6.35902 22.9995 12.5186 22.9995C18.6657 22.9995 23.6503 18.4009 23.6503 12.7296C23.6503 7.05839 18.6657 2.45978 12.5186 2.45978ZM12.5186 20.7173C7.73193 20.7173 3.86057 17.1457 3.86057 12.7296C3.86057 8.31359 7.73193 4.74197 12.5186 4.74197C17.3052 4.74197 21.1766 8.31359 21.1766 12.7296C21.1766 17.1457 17.3052 20.7173 12.5186 20.7173Z" fill="white"/>
</svg>
