<svg width="17" height="16" viewBox="0 0 17 16" fill="none" xmlns="http://www.w3.org/2000/svg">
<path d="M12.2771 9.80581H11.5559L11.3003 9.57249C12.1949 8.58737 12.7335 7.30843 12.7335 5.91716C12.7335 2.81489 10.0771 0.300232 6.79998 0.300232C3.52285 0.300232 0.866455 2.81489 0.866455 5.91716C0.866455 9.01944 3.52285 11.5341 6.79998 11.5341C8.26967 11.5341 9.62068 11.0243 10.6613 10.1774L10.9078 10.4194V11.102L15.4721 15.4141L16.8322 14.1265L12.2771 9.80581ZM6.79998 9.80581C4.52698 9.80581 2.69215 8.06888 2.69215 5.91716C2.69215 3.76545 4.52698 2.02852 6.79998 2.02852C9.07298 2.02852 10.9078 3.76545 10.9078 5.91716C10.9078 8.06888 9.07298 9.80581 6.79998 9.80581Z" fill="#BEBEBE"/>
</svg>
