<svg width="28" height="28" viewBox="0 0 28 28" fill="none" xmlns="http://www.w3.org/2000/svg">
<path d="M27.3162 5.3956L23.9512 4.0488L22.605 0.683198L20.8432 2.4444C18.7718 1.2152 16.4181 0.559998 14 0.559998C6.58952 0.559998 0.559998 6.58952 0.559998 14C0.559998 21.4105 6.58952 27.44 14 27.44C21.4105 27.44 27.44 21.4105 27.44 14C27.44 11.5819 26.7848 9.22824 25.5556 7.1568L27.3162 5.3956ZM23.0888 4.9112L25.3232 5.80496L23.9445 7.18312L21.7112 6.2888L20.8174 4.05496L22.1956 2.67624L23.0888 4.9112ZM26.32 14C26.32 20.7934 20.7934 26.32 14 26.32C7.20664 26.32 1.68 20.7934 1.68 14C1.68 7.20664 7.20664 1.68 14 1.68C16.1213 1.68 18.1916 2.22376 20.0295 3.25808L19.5026 3.78504L20.6226 6.5856L19.9175 7.29064C18.3378 5.89456 16.2691 5.04 14 5.04C9.05968 5.04 5.04 9.05968 5.04 14C5.04 18.9403 9.05968 22.96 14 22.96C18.9403 22.96 22.96 18.9403 22.96 14C22.96 11.7309 22.1054 9.66224 20.7099 8.08192L21.415 7.37688L24.2155 8.49688L24.7425 7.96992C25.7762 9.8084 26.32 11.8787 26.32 14ZM17.36 14C17.36 15.853 15.853 17.36 14 17.36C12.147 17.36 10.64 15.853 10.64 14C10.64 12.147 12.147 10.64 14 10.64C14.7246 10.64 15.3944 10.873 15.9438 11.2644L14.2867 12.9214C14.1943 12.8974 14.0997 12.88 14 12.88C13.3818 12.88 12.88 13.3812 12.88 14C12.88 14.6188 13.3818 15.12 14 15.12C14.6182 15.12 15.12 14.6188 15.12 14C15.12 13.9003 15.1026 13.8057 15.0786 13.7133L16.7356 12.0562C17.127 12.6056 17.36 13.2754 17.36 14ZM16.7429 10.4653C15.9835 9.87504 15.0338 9.52 14 9.52C11.5298 9.52 9.52 11.5298 9.52 14C9.52 16.4702 11.5298 18.48 14 18.48C16.4702 18.48 18.48 16.4702 18.48 14C18.48 12.9662 18.125 12.0165 17.5347 11.2571L19.9186 8.8732C21.112 10.2497 21.84 12.0394 21.84 14C21.84 18.3232 18.3232 21.84 14 21.84C9.6768 21.84 6.16 18.3232 6.16 14C6.16 9.6768 9.6768 6.16 14 6.16C15.96 6.16 17.7503 6.888 19.1262 8.08192L16.7429 10.4653Z" fill="#FD6B22"/>
</svg>
