<svg width="22" height="26" viewBox="0 0 22 26" fill="none" xmlns="http://www.w3.org/2000/svg">
<path d="M13.8 5.03749C12.3125 5.64999 10.475 4.42499 10.475 4.42499C10.475 4.42499 11.0875 2.32499 12.575 1.79999C14.0625 1.27499 15.9 2.41249 15.9 2.41249C15.9 2.41249 15.2875 4.42499 13.8 5.03749Z" stroke="#5631FA" stroke-miterlimit="10" stroke-linecap="round" stroke-linejoin="round"/>
<path d="M16.3374 6.96252C15.0249 6.70002 13.6249 7.05002 12.5749 7.75002C11.6124 8.36252 10.3874 8.36252 9.51245 7.75002C8.37495 7.05002 6.97495 6.70002 5.66245 6.96252C2.42495 7.48752 0.149948 10.9 0.587448 14.575C1.02495 18.25 4.61245 24.8125 7.84995 24.2875C8.28745 24.2 8.72495 24.025 9.07495 23.7625C10.2124 22.975 11.7874 22.975 12.9249 23.7625C13.2749 24.025 13.7124 24.2 14.1499 24.2875C17.3874 24.8125 20.9749 18.25 21.4124 14.575C21.9374 10.9 19.6624 7.48752 16.3374 6.96252Z" stroke="#5631FA" stroke-miterlimit="10" stroke-linecap="round" stroke-linejoin="round"/>
<path d="M7.5 1.625L7.85 1.8875C9.8625 3.375 11 5.7375 11 8.1875" stroke="#5631FA" stroke-miterlimit="10" stroke-linecap="round" stroke-linejoin="round"/>
</svg>
